<svg xmlns="http://www.w3.org/2000/svg" width="182.549" height="81.764" viewBox="0 0 182.549 81.764">
  <path id="nuage_gauche" data-name="nuage gauche" d="M693.423,242.529a22.868,22.868,0,0,0-11.73,3.22A22.91,22.91,0,0,0,651.28,225.64a26.867,26.867,0,0,0-25.66-18.909c-.906,0-1.8.058-2.683.146a26.855,26.855,0,0,0-23.917,18.714,22.913,22.913,0,0,0-30.448,20.1,22.984,22.984,0,1,0-11.73,42.748,23.326,23.326,0,0,0,2.5-.139h35.3a26.961,26.961,0,0,0,3.141.2q1.388,0,2.742-.137h50.4c.515.029,1.024.078,1.546.078s1.031-.049,1.545-.078h36.9a23.316,23.316,0,0,0,2.5.137,22.983,22.983,0,1,0,0-45.966Z" transform="translate(-533.858 -206.731)" fill="#f0f0f0"/>
</svg>
